<svg xmlns="http://www.w3.org/2000/svg" width="238" height="237" viewBox="0 0 238 237" fill="none"><g filter="url(#filter0_d_103_88)"><circle cx="119" cy="114.668" r="78.2354" fill="white"></circle></g><path d="M112.726 105.495C111.798 105.495 110.908 105.511 110.019 105.478C109.882 105.473 109.703 105.265 109.629 105.11C108.614 102.987 107.323 101.053 105.708 99.3398C102.031 95.4374 97.5356 93.0901 92.2248 92.3717C82.6606 91.0772 73.1977 96.2466 69.0843 104.986C68.9054 105.367 68.7196 105.533 68.2798 105.508C67.5091 105.463 66.734 105.495 65.875 105.495C67.1231 102.283 68.9236 99.4895 71.2946 97.0733C75.3792 92.9116 80.3139 90.3738 86.1052 89.6605C99.383 88.0252 109.418 96.5272 112.726 105.495Z" fill="#C3282E"></path><path d="M112.714 123.753C109.82 131.784 100.847 140.392 87.997 139.763C76.4271 139.197 68.4694 131.009 65.9351 123.753C66.8334 123.753 67.7224 123.739 68.6101 123.768C68.7396 123.772 68.9136 123.954 68.9811 124.094C69.9389 126.095 71.1332 127.938 72.6265 129.58C76.2644 133.58 80.7368 136.069 86.1014 136.812C93.182 137.792 99.3705 135.78 104.641 130.974C106.744 129.057 108.383 126.773 109.582 124.186C109.74 123.845 109.926 123.724 110.305 123.741C111.101 123.776 111.901 123.751 112.713 123.751L112.714 123.753Z" fill="#C3282E"></path><path d="M124.684 116.969C125.175 115.519 125.638 114.159 126.096 112.797C126.555 111.432 127.008 110.065 127.468 108.684H130.042C130.929 111.432 131.817 114.185 132.746 117.06C133.687 114.198 134.594 111.444 135.503 108.681H138.148C137.946 109.313 137.754 109.92 137.557 110.524C136.514 113.72 135.463 116.914 134.432 120.115C134.316 120.476 134.162 120.618 133.764 120.595C133.065 120.554 132.362 120.571 131.662 120.589C131.384 120.597 131.269 120.512 131.18 120.235C130.374 117.712 129.546 115.196 128.689 112.567C127.77 115.299 126.884 117.934 125.994 120.582C125.064 120.582 124.159 120.589 123.255 120.574C123.16 120.572 123.011 120.464 122.981 120.374C121.709 116.518 120.447 112.659 119.185 108.799C119.176 108.773 119.184 108.742 119.184 108.665C120.068 108.665 120.952 108.655 121.836 108.679C121.93 108.682 122.06 108.871 122.102 108.997C122.919 111.501 123.725 114.009 124.534 116.516C124.573 116.636 124.614 116.755 124.685 116.968L124.684 116.969Z" fill="#050708"></path><path d="M66.2121 120.801C63.3205 120.698 61.1378 119.683 60.0211 117.102C58.4746 113.527 60.3833 109.273 64.7713 108.576C66.8677 108.243 68.8284 108.606 70.4674 110.036C72.3399 111.668 72.9029 113.783 72.3418 116.143C71.7737 118.531 70.1434 119.957 67.8005 120.57C67.2281 120.72 66.6231 120.744 66.2121 120.801ZM65.9988 118.407C68.1677 118.414 69.7161 116.852 69.728 114.646C69.7392 112.458 68.204 110.853 66.0876 110.841C63.9011 110.829 62.3252 112.382 62.3152 114.557C62.3052 116.811 63.8254 118.4 65.9988 118.407V118.407Z" fill="#050708"></path><path d="M81.7766 117.292V120.547H79.0071V108.693C79.1328 108.683 79.2586 108.665 79.3837 108.665C81.0046 108.663 82.6256 108.652 84.2465 108.668C85.6016 108.682 86.8972 108.947 87.957 109.858C89.2707 110.986 89.5541 112.474 89.1969 114.079C88.8303 115.726 87.6667 116.652 86.0877 117.058C85.4877 117.212 84.8515 117.255 84.2284 117.284C83.4295 117.321 82.6274 117.292 81.7754 117.292H81.7766ZM81.8079 111.018V115.053C82.5787 115.053 83.3206 115.059 84.0632 115.049C84.2953 115.046 84.528 115.01 84.7583 114.976C85.8399 114.816 86.4912 114.112 86.5168 113.081C86.545 111.95 85.9882 111.169 84.8546 111.041C83.863 110.929 82.8495 111.018 81.8079 111.018Z" fill="#050708"></path><path d="M172.074 115.577V118.348H178.498V120.555H169.34V108.697H178.273V110.885H172.077V113.458H177.537V115.577H172.075H172.074Z" fill="#050708"></path><path d="M162.519 109.525C162.235 110.225 161.963 110.896 161.689 111.572C161.077 111.343 160.498 111.084 159.893 110.907C159.001 110.647 158.087 110.576 157.178 110.847C156.986 110.905 156.791 110.988 156.627 111.101C155.872 111.622 155.932 112.629 156.787 112.938C157.796 113.302 158.85 113.536 159.881 113.84C160.312 113.967 160.746 114.1 161.158 114.279C163.554 115.315 163.345 117.912 162.291 119.176C161.582 120.026 160.634 120.464 159.579 120.638C157.557 120.973 155.6 120.743 153.754 119.802C153.537 119.691 153.337 119.547 153.118 119.411C153.438 118.702 153.742 118.029 153.999 117.458C154.951 117.795 155.845 118.177 156.775 118.421C157.684 118.66 158.628 118.663 159.527 118.301C159.961 118.125 160.262 117.799 160.279 117.313C160.295 116.852 159.993 116.565 159.609 116.369C159.403 116.264 159.185 116.172 158.962 116.111C158.191 115.898 157.405 115.736 156.645 115.489C155.959 115.265 155.228 115.062 154.643 114.665C152.791 113.408 152.955 110.624 154.897 109.346C155.634 108.861 156.451 108.611 157.313 108.526C158.98 108.361 160.601 108.542 162.125 109.294C162.217 109.339 162.302 109.396 162.391 109.447C162.428 109.469 162.464 109.491 162.519 109.525H162.519Z" fill="#050708"></path><path d="M94.0315 108.682H104.346V110.929H100.619V120.546H97.8264V110.952H94.0315V108.682Z" fill="#050708"></path><path d="M110.287 108.678H113.014V120.556H110.287V108.678Z" fill="#050708"></path><path d="M144.116 108.68H146.803V120.557H144.116V108.68Z" fill="#050708"></path><path d="M178.51 121.592H169.328V125.102H178.51V121.592Z" fill="#676767"></path><path d="M171.483 123.719C171.639 123.719 171.763 123.839 171.763 123.999C171.763 124.159 171.639 124.282 171.483 124.282C171.327 124.282 171.206 124.159 171.206 123.999C171.206 123.839 171.329 123.719 171.483 123.719Z" fill="white"></path><path d="M174.17 122.411L174.874 124.261H174.384L174.251 123.903H173.58L173.451 124.261H172.972L173.676 122.411H174.17ZM173.728 123.505H174.107L173.917 122.984L173.728 123.505Z" fill="white"></path><path d="M176.632 124.261H176.147V122.411H176.632V124.261Z" fill="white"></path><path d="M207.892 63.1606C207.892 66.5578 205.138 69.3117 201.74 69.3117C198.343 69.3117 195.589 66.5578 195.589 63.1606C195.589 59.7634 198.343 57.0095 201.74 57.0095C205.138 57.0095 207.892 59.7634 207.892 63.1606Z" fill="#FC852A"></path><path d="M42.4691 63.1606C42.4691 66.5578 39.7152 69.3117 36.318 69.3117C32.9208 69.3117 30.1669 66.5578 30.1669 63.1606C30.1669 59.7634 32.9208 57.0095 36.318 57.0095C39.7152 57.0095 42.4691 59.7634 42.4691 63.1606Z" fill="#FC852A"></path><path fill-rule="evenodd" clip-rule="evenodd" d="M218.055 111.122L218.054 111.101C217.546 96.9633 214.022 83.2131 207.845 70.7238C207.044 71.3708 206.139 71.8932 205.158 72.2616C211.078 84.2904 214.461 97.5202 214.963 111.122H218.055ZM206.149 67.4502C204.255 63.9546 202.148 60.5677 199.837 57.3098C198.829 57.6375 197.935 58.2184 197.231 58.9773C199.534 62.2118 201.628 65.5782 203.504 69.0551C204.521 68.7513 205.428 68.1914 206.149 67.4502ZM189.087 44.581C192.168 47.6616 195.025 50.924 197.647 54.3431C196.7 54.7835 195.836 55.372 195.084 56.0788C192.574 52.819 189.843 49.7069 186.902 46.7659C168.894 28.7571 144.468 18.6398 119 18.6398C93.5316 18.6398 69.1063 28.7571 51.0975 46.7659C48.1661 49.6973 45.4438 52.7987 42.9401 56.047C42.1849 55.3436 41.3176 54.7591 40.3679 54.3232C42.9863 50.9113 45.838 47.6556 48.9126 44.581C67.5009 25.9927 92.7121 15.5499 119 15.5499C145.288 15.5499 170.499 25.9927 189.087 44.581ZM31.872 67.4114C33.7633 63.924 35.8669 60.545 38.1742 57.2945C39.1856 57.6143 40.084 58.1884 40.7943 58.9418C38.4851 62.1825 36.3854 65.5556 34.504 69.0399C33.4897 68.7273 32.5874 68.1595 31.872 67.4114ZM30.1721 70.6899C23.9845 83.1882 20.4548 96.9505 19.9456 111.101L19.9448 111.122H23.0367C23.5392 97.5132 26.9254 84.2767 32.8513 72.243C31.8724 71.8691 30.9696 71.3416 30.1721 70.6899Z" fill="#FF872A"></path><path fill-rule="evenodd" clip-rule="evenodd" d="M19.9447 118.215L19.9455 118.236C20.4625 132.605 24.0939 146.573 30.4599 159.224C31.2792 158.604 32.1998 158.111 33.1924 157.774C27.0569 145.56 23.5512 132.081 23.0392 118.215H19.9447ZM32.1577 162.449C34.1 165.979 36.2608 169.397 38.6312 172.681C39.6084 172.284 40.4606 171.643 41.112 170.834C38.8344 167.676 36.7569 164.389 34.8878 160.996C33.8514 161.242 32.9167 161.751 32.1577 162.449ZM48.9125 184.756C46.0133 181.857 43.3123 178.796 40.8181 175.596C41.7412 175.113 42.5771 174.486 43.2959 173.745C45.7015 176.827 48.3054 179.775 51.0992 182.569C69.1076 200.577 93.5322 210.695 119 210.694C144.468 210.694 168.892 200.577 186.901 182.569C189.704 179.765 192.317 176.806 194.73 173.711C195.445 174.456 196.278 175.087 197.199 175.574C194.7 178.782 191.993 181.85 189.087 184.756C170.499 203.344 145.288 213.787 119 213.787C92.712 213.787 67.5008 203.344 48.9125 184.756ZM205.862 162.413C203.918 165.95 201.755 169.373 199.382 172.662C198.408 172.258 197.561 171.61 196.916 170.795C199.185 167.645 201.255 164.368 203.119 160.983C204.158 161.221 205.097 161.723 205.862 162.413ZM207.556 159.192C213.912 146.549 217.538 132.592 218.054 118.236L218.055 118.215H214.96C214.449 132.074 210.946 145.547 204.816 157.757C205.81 158.089 206.733 158.577 207.556 159.192Z" fill="#00ACB5"></path><path d="M207.892 166.98C207.892 170.377 205.138 173.131 201.74 173.131C198.343 173.131 195.589 170.377 195.589 166.98C195.589 163.582 198.343 160.828 201.74 160.828C205.138 160.828 207.892 163.582 207.892 166.98Z" fill="#00A8B1"></path><path d="M42.4691 166.98C42.4691 170.377 39.7152 173.131 36.318 173.131C32.9208 173.131 30.1669 170.377 30.1669 166.98C30.1669 163.582 32.9208 160.828 36.318 160.828C39.7152 160.828 42.4691 163.582 42.4691 166.98Z" fill="#00A8B1"></path><defs><filter id="filter0_d_103_88" x="0.764526" y="0.433075" width="236.471" height="236.471" filterUnits="userSpaceOnUse" color-interpolation-filters="sRGB"><feGaussianBlur stdDeviation="20"></feGaussianBlur></filter></defs></svg>